<svg version="1.2" baseProfile="tiny" width="100%" height="100%" viewBox="0 0 400 600" preserveAspectRatio="xMinYMin meet"><g transform="scale(0.8760000000000001 1) translate(29.721978627383407 0)"><g fill="#2C1608" stroke="#000" stroke-width="4.264392324093817"><path d="m401.1 549.5-1.8.7c-.6-1.2-1.5-2.4-2.2-3.6-.1-.2-.2-.3-.2-.5-.2-.5-.4-1.1-.4-1.7-.7-21.9-8.4-42.1-16.3-62-18-45.3-29.3-92.3-37.9-140.1-3.2-17.5-6.1-35.1-9.3-52.7l1.8-.3c5.1 26.5 10.3 52.9 15.7 79.4 8.4 41.8 21.1 82.2 36.9 121.8 6.7 16.9 12.4 34.1 12.7 52.6.1 2.1.4 4.3 1 6.4z"></path><path d="m396.9 546.1-.6.3c-2.2-.2-4.4-.6-6.6-.7-16.5-.6-33-.5-49.4-1.8-24.7-2-49.3-5.4-74.1-7.6-14.9-1.3-30-1-44.9-2.3-28.6-2.3-57.1-4.9-85.6-7.8-11.8-1.2-23.6-2.4-35-5.3-11.7-2.9-23.2-4.3-35.1-2.9-10.8 1.2-21.7.6-32.3-1.8-1.7-4.9-2.4-9.6-4.9-13.1-5.2-7.4-6-15.4-4.9-23.8 1-8.1 2-16.3 4.2-24.1 5.4-19.7 9.3-39.5 8.8-60.1-.1-3.3-.1-6.6-.1-9.8 0-3.2 0-6.6.1-9.8C38 342 47 309 63 280l-.7-.5c6.8-9.8 10.8-19.7 16.7-29.5 2.3-3.2 4.8-6.3 7.7-9.1l2.1.2c-.6.6-1.2 1.2-1.8 1.9 12-7 26-9 40.1-9.5 3.7-.2 7.4-.5 11-.6 3.7-.2 7.4-.3 11.1-.4 33.6-1.1 66.8 4 100.2 6.2 23.1 1.5 42.9 10.9 62 22.2 6.7 4 12 10.4 17.7 16.1 1.5 1.5 2.4 4.1 2.8 6.3.4 2.1.8 4.2 1.1 6.3l1.8-.3-1.8.3c3.1 17.6 6.1 35.2 9.3 52.7 8.6 47.8 19.9 94.9 37.9 140.1 7.9 19.9 15.6 40.1 16.3 62 0 .6.1 1.1.4 1.7zm-18.7-11.5c-.3-2.8-.2-4.3-.6-5.5-4-12-8.1-23.9-12.3-35.8-3-8.3-6.6-16.4-9.4-24.7-9.1-27.1-18.1-54.3-26.9-81.6-6.1-19-11.6-38.2-17.4-57.3-.6-2.5-1.1-5-1.4-7.5-1.4 15 58.6 202.8 68 212.4zM68.6 351.4C69 332 75 313 74.4 292.8c-.7 3.1-1.1 4.7-1.4 6.2-3 20-5 39-6.3 58.6l-1.2 11.7c-.9 7.8-1.9 15.6-3.1 23.4-3.7 24.1-7.2 48.1-7.2 72.5 0 11.3 4.9 22.4 2.4 34 0 .1.5.4.7.5 3.1-5.6 3.3-15.8.8-24.1-.9-2.8-1.8-5.9-1.6-8.8.9-15.8 1.6-31.6 3.3-47.3 1.9-18.2 4.2-36.4 6.4-54.6.4-4.4.9-9 1.4-13.5z"></path><path d="M396.3 546.7c.1.6.2 1.2.3 1.7-2.2.6-4.5 1.9-6.7 1.8-17.8-.6-35.7-.8-53.4-2.3-37.5-3.2-74.7-8.8-112.5-9.6-25.9-.6-51.8-4.1-77.7-6.4-12.3-1.1-24.6-1.9-36.8-3.7-7.5-1.1-14.7-5.2-22.1-5.7-11.7-.8-23.6.2-35.4.3-6.8 0-13.7-.2-20.5-.4-3.9-.1-6.4-.9-4.6-6.1.8-2.9.4-6-1.2-8.6-10.1-14.4-7.1-29.9-4-45.3 1.2-6.2 2.9-12.3 4.9-18.3 4.6-13.6 6.9-27.9 6.7-42.2-.1-6.8-.1-13.5 0-20.2l.3-10.1C36 340 46 308 63 280c-16 29-25 62-26.6 95.5-.1 3.3-.1 6.6-.1 9.8 0 3.2.1 6.6.1 9.8.5 20.6-3.3 40.4-8.8 60.1-2.2 7.8-3.2 16-4.2 24.1-1.1 8.4-.3 16.4 4.9 23.8 2.5 3.5 3.1 8.3 4.9 13.1 10.6 2.4 21.5 3 32.3 1.8 11.9-1.4 23.4 0 35.1 2.9 11.4 2.9 23.2 4.1 35 5.3 28.5 2.9 57 5.5 85.6 7.8 14.9 1.2 30 .9 44.9 2.3 24.7 2.2 49.3 5.6 74.1 7.6 16.4 1.4 32.9 1.2 49.4 1.8 2.2.1 4.4.4 6.6.7l.1.3z"></path><path d="M377.6 529c.4 1.3.3 2.8.6 5.5-9.4-9.5-69.4-197.3-68-212.4.3 2.5.8 5.1 1.4 7.5 5.7 19.1 11.3 38.3 17.4 57.3 8.7 27.3 17.8 54.4 26.9 81.6 2.8 8.3 6.5 16.4 9.4 24.7 4.2 11.9 8.2 23.9 12.3 35.8zm-42.8-248.2c.6 2.7-.5 5.7 0 8.4l-1.8.3c-.4-2.1-.8-4.2-1.1-6.3-.4-2.2-1.3-4.7-2.8-6.3-5.6-5.6-10.9-12.1-17.7-16.1-19.1-11.3-38.9-20.7-62-22.2-33.4-2.2-66.6-7.4-100.2-6.2-3.7.1-7.4.3-11.1.4-3.7.2-7.4.4-11 .6C113 234 99 236 87 243c.6-.7 1.2-1.3 1.8-1.9 9.2-8.9 24-7.3 35.2-10.1 5-.5 10.2-.8 15.3-1.1 30.8-1.5 61.6.9 92.3 4.2 9.8 1.1 19.6 1.7 29.3 3 26.1 3.4 47.6 16.1 66.8 33.5 3.3 3 6.1 6 7.1 10.2zM82.3 243.5c1.4-.9 2.8-1.8 4.3-2.6-2.9 2.8-5.4 5.8-7.7 9.1-5.9 9.8-9.9 19.7-16.7 29.5-.1.2-.2.3-.3.5 6.1-12 9.1-26 20.4-36.5zm-7.9 49.3C75 313 69 332 68.6 351.4c-.5 4.6-1 9.1-1.6 13.6-2.2 18.2-4.5 36.4-6.4 54.6-1.6 15.7-2.4 31.5-3.3 47.3-.2 2.9.8 5.9 1.6 8.8 2.5 8.4 2.3 18.5-.8 24.1-.3-.2-.7-.4-.7-.5 2.5-11.6-2.4-22.7-2.4-34 0-24.4 3.4-48.4 7.2-72.5 1.2-7.8 2.3-15.6 3.1-23.4.4-3.9.9-7.8 1.2-11.7C68 338 70 319 73 299c.3-1.5.7-3.1 1.4-6.2zm260.4-3.6c5.1 26.5 10.3 52.9 15.7 79.4 8.4 41.8 21.1 82.2 36.9 121.8 6.7 16.9 12.4 34.1 12.7 52.6.2 2.2.5 4.4 1.1 6.5l-1.8.7c-.6-1.2-1.5-2.4-2.2-3.6-.1-.2-.2-.3-.2-.5-.2-.5-.4-1.1-.4-1.7-.7-21.9-8.4-42.1-16.3-62-18-45.3-29.3-92.3-37.9-140.1-3.2-17.5-6.1-35.1-9.3-52.7l1.7-.4z"></path><path d="M396.3 546.4v.3c.1.6.2 1.2.3 1.7-2.2.6-4.5 1.9-6.7 1.8-17.8-.6-35.7-.8-53.4-2.3-37.5-3.2-74.7-8.8-112.5-9.6-25.9-.6-51.8-4.1-77.7-6.4-12.3-1.1-24.6-1.9-36.8-3.7-7.5-1.1-14.7-5.2-22.1-5.7-11.7-.8-23.6.2-35.4.3-6.8 0-13.7-.2-20.5-.4-3.9-.1-6.4-.9-4.6-6.1.8-2.9.4-6-1.2-8.6-10.1-14.4-7.1-29.9-4-45.3 1.2-6.2 2.9-12.3 4.9-18.3 4.6-13.6 6.9-27.9 6.7-42.2-.1-6.8-.1-13.5 0-20.2l.3-10.1C36 340 46 308 63 280c-16 29-25 62-26.6 95.5-.1 3.3-.1 6.6-.1 9.8 0 3.2.1 6.6.1 9.8.5 20.6-3.3 40.4-8.8 60.1-2.2 7.8-3.2 16-4.2 24.1-1.1 8.4-.3 16.4 4.9 23.8 2.5 3.5 3.1 8.3 4.9 13.1 10.6 2.4 21.5 3 32.3 1.8 11.9-1.4 23.4 0 35.1 2.9 11.4 2.9 23.2 4.1 35 5.3 28.5 2.9 57 5.5 85.6 7.8 14.9 1.2 30 .9 44.9 2.3 24.7 2.2 49.3 5.6 74.1 7.6 16.4 1.4 32.9 1.2 49.4 1.8 2.3.1 4.5.4 6.7.7zM88.8 241.1c9.2-8.9 24-7.3 35.2-10.1 5-.5 10.2-.8 15.3-1.1 30.8-1.5 61.6.9 92.3 4.2 9.8 1.1 19.6 1.7 29.3 3 26.1 3.4 47.6 16.1 66.8 33.5 3.3 3 6.1 6 7 10.2.6 2.7-.5 5.7 0 8.4l-1.8.3c-.4-2.1-.8-4.2-1.1-6.3-.4-2.2-1.3-4.7-2.8-6.3-5.6-5.6-10.9-12.1-17.7-16.1-19.1-11.3-38.9-20.7-62-22.2-33.4-2.2-66.6-7.4-100.2-6.2-3.7.1-7.4.3-11.1.4-3.7.2-7.4.4-11 .6-14 .6-28 2.6-40 9.6.6-.7 1.2-1.3 1.8-1.9zm-2.1-.2c-2.9 2.8-5.4 5.8-7.7 9.1-5.9 9.8-9.9 19.7-16.7 29.5-.1.2-.2.3-.3.5 6-12 9-26 20.3-36.5 1.4-.9 2.9-1.7 4.4-2.6z"></path><path d="M378.2 534.6c-9.4-9.5-69.4-197.3-68-212.4.3 2.5.8 5.1 1.4 7.5 5.7 19.1 11.3 38.3 17.4 57.3 8.7 27.3 17.8 54.4 26.9 81.6 2.8 8.3 6.5 16.4 9.4 24.7 4.3 11.9 8.3 23.8 12.3 35.8.4 1.2.3 2.7.6 5.5zM74.4 292.8C75 313 69 332 68.6 351.4c-.5 4.6-1 9.1-1.6 13.6-2.2 18.2-4.5 36.4-6.4 54.6-1.6 15.7-2.4 31.5-3.3 47.3-.2 2.9.8 5.9 1.6 8.8 2.5 8.4 2.3 18.5-.8 24.1-.3-.2-.7-.4-.7-.5 2.5-11.6-2.4-22.7-2.4-34 0-24.4 3.4-48.4 7.2-72.5 1.2-7.8 2.3-15.6 3.1-23.4.4-3.9.9-7.8 1.2-11.7C68 338 70 319 73 299c.3-1.5.7-3.1 1.4-6.2z"></path></g></g><g transform="scale(0.95 1) translate(10.653544877704832 0)"><path fill="#f2d6cb" stroke="#000" stroke-width="6.153846153846154" d="M20 600s-5-60 40-70c15 0 45-15 90-35l50-195 50 195c45 20 75 35 90 35 45 10 45 70 45 70" class="body"></path></g><g transform="scale(0.95 1) translate(10.526315789473694 0)"><path fill="#89bfd3" stroke="#000" stroke-width="6.153846153846154" d="M80 610s10-30 10-90l20-10s10 80 90 80 90-80 90-80l20 10c0 60 10 90 10 90H80Z"></path></g><g transform="translate(32 290.5999984741211) scale(0.8 0.8) translate(5.749999999999998 8.600000381469725) translate(16.22 -3)"><path fill="#f2d6cb" stroke="#000" stroke-width="7.5" d="M43 13S23 3 13 3 3 23 3 33s3 20 13 30 27-10 27-10V13Z"></path></g><g transform="translate(322 290.5999984741211) scale(-0.8 0.8) translate(-51.74999999999999 8.600000381469725) translate(16.22 -3)"><path fill="#f2d6cb" stroke="#000" stroke-width="7.5" d="M43 13S23 3 13 3 3 23 3 33s3 20 13 30 27-10 27-10V13Z"></path></g><g transform="scale(0.8760000000000001 1) translate(28.29622251258046 0)"><path fill="#f2d6cb" stroke="#000" stroke-width="6.3965884861407245" d="M196.8 104.8c9.8-.2 48.8-1.1 82.7 18.6 78.6 45.8 71.1 168.5 70.5 176.9-5.1 68.6-41.1 113.8-57 133.7-24.8 31-53.4 66.8-93 66.3-37.4-.4-63.6-32.7-90-65.3-19.8-24.4-54.9-68.3-60-134.7-4.4-57.2 12.6-143.6 75-178.2 28.9-16 60.6-17 71.8-17.3z"></path></g><g transform="translate(-47.75042724609375 9.709030151367188) rotate(12 187.75042724609375 300.2909698486328)"><path d="M232.2 315.6c3.9-10.5 2.3-25.4 2.3-25.4s-35.9-6.3-45.8-5.2c-9.9 1-24.3 7.6-24.3 7.6s-1.4 10.2 7.6 24.3l60.2-1.3z" style="fill:#fff"></path><path d="M204.4 313.5c-4.1.4-8.2-5.9-9-14.1-.9-8.2 1.8-15.3 5.9-15.7 4.1-.4 8.2 5.9 9 14.1.8 8.3-1.8 15.3-5.9 15.7z"></path><path d="M232.2 315.6c4.4-5.5 2.3-25.4 2.3-25.4s-35.9-6.3-45.8-5.2c-9.9 1-24.3 7.6-24.3 7.6s1.6 14.9 7.6 24.3" style="fill:none;stroke:#000;stroke-width:5"></path><path d="M140.5 287.5c2.1 1.5 5.8 3.8 11 5 5.7 1.3 10.4.6 13 0m3 13c-2 .8-5.1 1.8-9 2-.9 0-4.5.2-9-1-3.9-1-6.9-2.6-9-4" style="fill:none;stroke:#000;stroke-width:5;stroke-miterlimit:10"></path></g><g transform="translate(72.24957275390625 9.709030151367188) rotate(-12 187.75042724609375 300.2909698486328) scale(-1 1) translate(-375.5008544921875 0)"><path d="M232.2 315.6c3.9-10.5 2.3-25.4 2.3-25.4s-35.9-6.3-45.8-5.2c-9.9 1-24.3 7.6-24.3 7.6s-1.4 10.2 7.6 24.3l60.2-1.3z" style="fill:#fff"></path><path d="M204.4 313.5c-4.1.4-8.2-5.9-9-14.1-.9-8.2 1.8-15.3 5.9-15.7 4.1-.4 8.2 5.9 9 14.1.8 8.3-1.8 15.3-5.9 15.7z"></path><path d="M232.2 315.6c4.4-5.5 2.3-25.4 2.3-25.4s-35.9-6.3-45.8-5.2c-9.9 1-24.3 7.6-24.3 7.6s1.6 14.9 7.6 24.3" style="fill:none;stroke:#000;stroke-width:5"></path><path d="M140.5 287.5c2.1 1.5 5.8 3.8 11 5 5.7 1.3 10.4.6 13 0m3 13c-2 .8-5.1 1.8-9 2-.9 0-4.5.2-9-1-3.9-1-6.9-2.6-9-4" style="fill:none;stroke:#000;stroke-width:5;stroke-miterlimit:10"></path></g><g transform="translate(101.91746139526367 257.0658526420593) rotate(-4 38.08253860473633 12.934147357940674)"><path fill="#2C1608" stroke="#000" d="M74.17 18.39c5.31-3.87-1.66-7.27-1.66-7.27s-20.66-2.78-26.56-3.1c-7.56-.72-22.76-1.1-22.76-1.1S10.98 10 18.3 16.95c10.59 2.96 14.71-1.32 31.19-.91 16.85.28 21.74 4.37 24.68 2.35Z"></path><path d="M0 10h5v5H0v-5Z" style="fill:none"></path></g><g transform="translate(221.91746139526367 257.0658526420593) rotate(4 38.08253860473633 12.934147357940674) scale(-1 1) translate(-76.16507720947266 0)"><path fill="#2C1608" stroke="#000" d="M74.17 18.39c5.31-3.87-1.66-7.27-1.66-7.27s-20.66-2.78-26.56-3.1c-7.56-.72-22.76-1.1-22.76-1.1S10.98 10 18.3 16.95c10.59 2.96 14.71-1.32 31.19-.91 16.85.28 21.74 4.37 24.68 2.35Z"></path><path d="M0 10h5v5H0v-5Z" style="fill:none"></path></g><g transform="translate(0 5)"><path d="m170 440 10-10h40l10 10" style="fill:none;stroke:#000;stroke-width:5"></path></g><g transform="translate(199 344) scale(0.95 0.95) translate(0.5789473684210532 1.3684210526315803)"><path fill="#f2d6cb" stroke="#000" stroke-width="5.2631578947368425" d="M11 1S6 31 21 41L1 51" class="nose"></path></g><g transform="scale(0.8760000000000001 1) translate(28.289772451740394 0)"><g fill="#2C1608" stroke="#000" stroke-width="4.264392324093817"><path d="m216.1 60.6 11.1 1.8c15.5 2.3 30 8.1 41.8 16.8 32.1 23.2 57.1 50.5 71.8 84.2 8.9 20.5 15.1 41.5 16.6 63.3 2 29.6-.2 59.2-7.7 88.2-3.2 12.2-3.6 24.2-3.8 36.4-.2 24.4-.1 48.9-.7 73.2-.7 29.5-8.8 58-17.5 86.3-2.2 7.2-4.5 14.4-6.9 21.5-.4 1.1-1.1 1.9-2.2 2.5-1.6-10.2 2.4-20 2.6-30.8-17.2 15.8-34.5 30.4-60.4 36 1-1.5 1.8-3.2 2.6-4.9 13.5-40.7 23-82.4 28.4-124.4 5.4-42.4 13-84.6 9.4-127.1-8.1 1.2-16.5 3.5-24.9 3.7-11.6.2-23.2-1.1-34.8-2.1-1.9-.2-4.7-2.5-5.1-4.2-2.2-9-3.8-18.2-4.8-27.4-1.9-22.2-7.5-44.2-16.6-65.2-.4-1-1.2-1.8-2.2-2.5 1.8 8.3 3.7 16.6 5.4 24.9 4.3 20.4 5.1 40.9 3.4 61.6-.3 4 .5 8.1.1 12.1a5.7 5.7 0 0 1-3.6 4.1c-11.7 3.6-24.6 3.7-36.4.1-3-.9-4.3-2.2-3.5-5.5.9-3.3.4-6.9 0-10.4-2.9-29 1.1-57.5 8.7-85.8.3-1 .5-2 .7-3l-1.7-.4c-4.1 12.5-9.3 24.8-12.2 37.5-3.2 14.6-4.5 29.4-6.7 44.2-.8 5-2 9.9-3 14.8-.6 3-2.6 4.5-6.3 5.3-18.7 3.5-37.1 3.3-55.4-1.8l-5-1.4c2 87.3 13 172.8 41.1 257.6-5.6-1.8-11-2.9-15.8-5.1-15.9-7.3-29.9-17.2-41.2-29-.6-.7-1.3-1.2-3.1-3l4.4 31.5-2 .3c-.7-.8-1.3-1.6-1.7-2.5-7.1-26-15.2-51.9-20.9-78-3.3-15.2-3.5-31.1-3.9-46.7-.6-24.3-.1-48.5-.4-72.9-.1-5-1.6-10-2.6-15.1-1.8-9.1-4-18.2-5.4-27.3-3.6-24.2-5.9-48.4-2.6-72.6 6.8-49.8 28.3-93.8 72.3-128.7 8.3-6.6 16.6-13.3 25.8-19 10.8-6.6 23.8-9 36.9-10.7 1.8-.2 3.5-.7 5.2-1l32.7.6zM200.4 73c2.2-6.8 10.3-6.5 16.3-9.4H183c4.3 1.4 7.6 2.1 10.4 3.6 2.7 1.6 4.7 3.9 7 5.8-2.1-1.1-4.2-2-6.5-2.9-6.4-2-13-5.5-19.3-5.2-8.7.5-17.5 3.4-25.8 6.1-5.4 1.8-10 5.5-15 8.3 23.3-1.2 45.8-2.5 65.9 7.9 20.8-10.3 43.2-9.1 66.1-7.1-11.6-10.3-26.6-13.3-41.8-15.8-.5-.1-1.1-.1-1.6 0-7.2 3-14.6 5.9-22 8.7zm66.2 463.3c16.6-4.9 43.9-22.6 53.9-35.2.9-1.2 1.5-2.8 1.6-4.2 1.5-16 3.2-32 4.1-48.1 3.5-68.8 1.1-137.6-10.1-203.3 6.4 19.3 8.2 41.7 9.9 64 1.8 22.5 3.2 45.2 3.7 67.7.5 22.7.2 45.5-.9 68.3-1.1 22.3-3.4 44.7-5.3 68.4 10.5-32.1 19-63.1 19-95.2-.1-48.5 4-97.1-3.6-145.5l1.5-.2 5.9 41.3 1.5.1c2.6-19.9 6.3-39.9 7.4-59.9.8-15.6-.3-31.3-3.1-46.7-3.3-18.6-7.7-37.1-21.1-53.2-13-15.7-27.8-29.8-45.4-41.8-4.4-3-9.3-5.9-14.6-7.8-17.4-5.9-36-9-54.8-8.9-4.7 0-9.4 2.5-14.1 3.6-1.4.3-2.9.3-4.3 0-5.3-1.2-10.4-3.5-15.7-3.6-7.2-.1-14.4.5-21.4 1.7-14.8 2.4-29.7 4.5-42.4 12.5-16.7 10.4-30.6 23-43.1 36.8-5.3 5.8-10.8 11.9-14.1 18.6-9.1 19.1-14 39.1-16.2 59.6-2.2 20.2.4 40.3 3.1 60.3 1.3 9.4 3.1 18.7 4.7 28 3.5-13.5 2.9-27.3 7.5-39.5-1.1 15.4-2.9 31.8-3.3 48.1-.5 23.5.4 47.1-.1 70.6-.9 38.8 5 77.7 17.5 115 .4 1.2.9 2.5 1.3 3.8.6-.9.9-1.9.7-2.9-2-25.7-4.9-51.4-6-77.2-2.2-53.2.3-106.5 7.5-159.4 1.3-9.6 3.8-19.1 5.7-28.6l1.3.2c-1.1 4.5-2.7 9.1-3.2 13.7-3 31.2-6.5 62.2-8.5 93.4-3.2 48.2-.7 96.5 4.3 144.6.1 2.2 1 4.4 2.5 6.3 12.9 13.5 29 24.6 47.4 32.4 1.9.9 4 1.4 6.6 2.3-3.9-12-8.3-22.9-11-34.1-4.3-17.9-8.2-36-11.2-54.2C102.9 394 93.5 340 96.1 285c-.1-1.3-.4-2.6-.9-3.8-.7-1.8-2.3-3.6-2.3-5.5-.9-40.5 16.4-76.5 38.2-111.5 1.4-1.9 2.9-3.8 4.7-5.6 1.6-1.7 3.2-3.4 4.9-5-3.6 6.6-8.5 12.3-12 18.4-12.4 21.7-22.3 44.1-28.5 67.6-3.4 12.6-5 25.3-2.2 38.3.5 1.4 1.7 2.7 3.3 3.4 18.2 5.2 37.8 5.6 56.4 1.2 1.5-.4 3.6-1.8 3.8-3.1 1.6-7 2.8-14 3.6-21.1 1.8-20.3 5.4-40.4 13-59.8 5.5-14.3 12.7-28.1 21.6-41 .9 1.4 1.5 2.6 2.2 3.5 16 24.5 26.2 51.4 30.1 79.2 1.8 12.7 3.5 25.3 5.6 37.9.3 1.6 2.4 3.9 4.2 4.3 18.9 4.4 37.7 3.7 56.3-1.2 1.2-.3 2.8-1.3 2.9-2.2.8-4.9 2.4-10 1.6-14.8-2-12.8-3.6-25.7-7.9-38-8.9-26-18.5-51.9-39.7-74.2 7.8 4.8 13.8 11.2 17.5 18.7 7.3 13.8 14.5 27.8 20.8 41.9 9 20.2 13.8 41.1 13 62.8 0 1.4.2 3.7-.7 4.3-3.6 2-2.5 4.7-2.6 7.4-.5 19.7.7 39.6-1.6 59.1-5.4 44.2-11.8 88.3-19.4 132.2-2.8 19.8-9.9 38.6-15.4 57.9zm-66.1-374.4-2-.3c-2.9 7.3-6.2 14.4-8.5 21.8-10.2 32.9-11.4 66.4-9.2 100.2.1 1.3 2.5 3.6 3.9 3.6 9.4.5 18.9.6 28.4.6 4.8 0 6.9-2.1 6.3-6.4-.3-3.5-.3-7 .1-10.4 1.7-20.1.6-40.4-3.3-60.3-3.4-16.7-5.6-33.7-15.7-48.8zm-.3-63.1c6.5-4.5 14.1-5.2 21.6-4.7 7.7.5 15.4 1.2 23 2.5 13.4 2.2 26.9 4.5 38.3 11.6 17 10.8 31.9 23.7 44.3 38.3.8 1 1.8 1.9 2.8 2.8 0-1.4-.4-2.8-1.2-4-13.4-23.9-33.3-43.4-56.6-60.8-2.3-1.7-5.2-2.8-8.2-3-12.2-.5-24.5-1.3-36.6-.5-10.2.8-21.2 1.5-28 10-2.1-5-7.2-6.3-12.1-7.6-15.6-4-31.6-4-47.6-2.6-4.3.4-9.2 1.5-12.3 3.8-23.3 17.3-43.1 37-56.5 60.8-.7 1.2-1.3 2.6-1.6 3.2 10.1-9.4 20.5-19.5 31.4-29 13.6-11.9 30-19.7 49.6-22.3 6.2-.9 12.4-2.1 18.6-2.7 10.4-.8 21.2-2.2 31.1 4.2z"></path><path d="M266.6 536.3c5.4-19.2 12.5-38.2 15.9-57.5 7.6-43.9 14-88 19.4-132.2 2.4-19.6 1.2-39.4 1.6-59.1.1-2.6-1-5.4 2.6-7.4 1-.6.7-2.8.7-4.3.8-21.7-4-42.7-13-62.8-6.4-14.2-13.5-28.1-20.9-42-3.7-7.5-9.8-13.9-17.5-18.7 21.3 22.3 30.8 48.2 39.8 74.1 4.2 12.3 5.9 25.2 7.9 38 .7 4.8-.8 9.9-1.6 14.8-.1.9-1.7 1.8-2.9 2.2-18.6 5.1-37.5 5.7-56.3 1.2-1.8-.4-3.9-2.7-4.2-4.3-2.2-12.6-3.9-25.2-5.6-37.9-3.8-27.8-14.1-54.6-30.1-79.2-.7-1.1-1.3-2.1-2.2-3.5-8.9 13-16.1 26.7-21.6 41-7.6 19.5-11.2 39.5-13 59.8-.8 7.1-2 14.2-3.6 21.1-.2 1.2-2.3 2.7-3.8 3.1-18.5 4.3-38.1 3.8-56.4-1.2-1.6-.7-2.9-1.8-3.3-3.4-2.8-12.8-1.2-25.6 2.2-38.3 6.2-23.5 16.1-45.9 28.5-67.6 3.5-6.1 8.4-11.8 12-18.4-1.6 1.6-3.3 3.3-4.9 5-1.7 1.7-3.3 3.5-4.7 5.6-21.8 35-39.1 71-38.2 111.5 0 1.8 1.6 3.6 2.3 5.5.6 1.2.9 2.5.9 3.8-2.6 54.8 6.8 108.9 15.6 163.1 3 18.1 6.9 36.2 11.2 54.2 2.7 11.2 7.1 22.1 11 34.1-2.7-.9-4.7-1.5-6.6-2.3-18.4-7.8-34.6-18.8-47.5-32.4-1.5-1.8-2.4-4-2.5-6.3-5-48.1-7.5-96.3-4.3-144.6 2.1-31.2 5.5-62.3 8.5-93.4.5-4.6 2.1-9.1 3.2-13.7l-1.3-.2c-1.9 9.5-4.4 19-5.7 28.6-7.2 52.9-9.7 106.2-7.5 159.4 1.1 25.8 3.9 51.5 6 77.2.2 1.1-.1 2-.7 2.9-.4-1.2-.9-2.5-1.3-3.8-12.5-37.4-18.5-76.2-17.6-115.1.5-23.5-.5-47.1.1-70.6.4-16.3 2.2-32.7 3.3-48.1-4.5 12.3-4 26-7.5 39.5-1.6-9.4-3.4-18.7-4.7-28-2.7-20-5.3-40.1-3.1-60.3 2.2-20.5 7-40.6 16.2-59.6 3.2-6.7 8.8-12.8 14.1-18.6 12.4-13.8 26.4-26.4 43.1-36.8 12.7-8 27.6-10 42.4-12.5 7-1.2 14.2-1.9 21.4-1.7 5.3.2 10.5 2.5 15.7 3.6 1.4.3 2.9.3 4.3 0 4.7-1.2 9.4-3.6 14.1-3.6 18.8 0 37.4 3 54.8 8.9 5.2 1.7 10.1 4.7 14.6 7.8 17.7 12 32.4 26.1 45.4 41.8 13.4 16.1 17.8 34.7 21.1 53.2 2.8 15.4 3.8 31.1 3.1 46.7-1.1 20-4.8 40-7.4 59.9l-1.5-.1-5.8-41.3-1.5.2c7.6 48.4 3.5 97 3.6 145.5 0 32.1-8.5 63.2-19 95.2 1.9-23.7 4.3-46 5.3-68.4 1.1-22.7 1.4-45.4.9-68.3-.5-22.6-2-45.2-3.7-67.7-1.8-22.4-3.5-44.9-9.9-64 11.2 65.8 13.6 134.5 10.1 203.3-.8 16.1-2.6 32.1-4.1 48.1-.1 1.5-.7 3-1.6 4.2-10.4 12.5-37.7 30.2-54.3 35.1zM325.7 204c-1.2-33-20.8-56.6-52.9-74-15.7-8.5-32.9-11.4-51.1-9.7-6.3.6-12.4 3.2-18.5 4.9l.5 1.3c4.4-1.4 8.8-3.5 13.4-4.1 17.3-2 34.1-.4 49.6 7.1 28.1 13.6 47.7 32.9 55.2 59.9 1.3 5 2.5 9.7 3.8 14.6zm-250.8-2.8c1.9-6.2 3.4-12.7 5.8-18.8 10.4-27.3 32.4-46 63.4-56.8 16.4-5.7 33.9-6.3 51-.2-3.9-1.9-7.8-4-12-4.5-14.4-1.9-28.9-1.6-42.5 3.5-26.1 9.9-45.9 25.4-58 47.4-5.2 9.1-7.8 19.2-7.7 29.4z"></path><path d="M200.5 161.9c10.1 15.1 12.3 32.1 15.7 48.8 3.9 19.9 5.1 40.2 3.3 60.3-.4 3.5-.4 7-.1 10.4.6 4.3-1.5 6.3-6.3 6.4-9.5 0-18.9-.1-28.4-.6-1.4-.1-3.8-2.3-3.9-3.6-2.2-33.7-1-67.3 9.2-100.2 2.3-7.4 5.6-14.5 8.5-21.8l2 .3zm-.3-63.1c-9.9-6.3-20.6-5-31.2-4-6.2.6-12.4 1.8-18.6 2.7-19.6 2.6-36 10.4-49.6 22.3-10.9 9.6-21.3 19.7-31.4 29 .3-.5.9-1.8 1.6-3.2 13.4-23.9 33.2-43.5 56.5-60.8 3.1-2.3 8.1-3.5 12.3-3.8 16-1.3 32-1.4 47.6 2.6 4.9 1.2 10 2.6 12.1 7.6 6.8-8.5 17.8-9.3 28-10 12.1-.9 24.4 0 36.6.5 3 .3 5.9 1.2 8.2 3 23.2 17.4 43.1 36.9 56.6 60.8.8 1.2 1.2 2.6 1.2 4-.9-.9-1.9-1.8-2.8-2.8-12.4-14.6-27.3-27.5-44.3-38.3-11.3-7.2-24.9-9.4-38.3-11.6-7.6-1.2-15.3-2-23-2.5-7.5-.7-15.1-.1-21.5 4.5z"></path><path d="M200.4 73.1c7.4-2.9 14.8-5.8 22.2-8.6.5-.1 1.1-.1 1.6 0C239.5 67 254.5 70 266 80.3c-22.9-2-45.3-3.2-66.1 7.1-20.2-10.4-42.7-9-65.9-7.9 5-2.9 9.5-6.5 15-8.3 8.3-2.9 17-5.8 25.8-6.1 6.3-.3 12.9 3.2 19.3 5.2 2.2.9 4.4 1.7 6.5 2.9l-.2-.1z"></path><path d="M200.5 73c-2.4-1.9-4.4-4.3-7.1-5.8s-6.1-2.2-10.4-3.6h33.7c-6 3-14.1 2.6-16.2 9.4-.1.1 0 0 0 0zm125.2 131c-1.3-4.9-2.5-9.8-3.8-14.6-7.6-27-27-46.3-55.2-59.9-15.5-7.5-32.3-9.1-49.6-7.1-4.6.6-8.9 2.7-13.4 4.1l-.5-1.3c6.2-1.6 12.2-4.2 18.5-4.9 18.2-1.8 35.4 1.2 51.1 9.7 32.1 17.5 51.7 41.1 52.9 74zm-250.8-2.8c-.2-10.2 2.5-20.2 7.7-29.4 12.1-22 31.9-37.6 58-47.4 13.6-5.1 28-5.4 42.5-3.5 4.2.6 8.1 2.7 12 4.5-17.1-6.1-34.6-5.5-51 .2-31 10.6-53 29.3-63.4 56.8-2.4 6.1-3.9 12.4-5.8 18.8z"></path></g></g><g transform="scale(0.8760000000000001 1) translate(28.31050228310499 0)"><g stroke="#000"><path fill="#89bfd3" stroke-width="4.264392324093817" d="M350 280c-10 0-30-90-150-90S60 280 50 280c-10-10-10-40 0-50 0 0 30-90 150-90s150 90 150 90c10 10 10 40 0 50Z"></path><path fill="#7a1319" d="M45 260v-10s35-90 155-90 155 90 155 90v10c-5 0-35-90-155-90S50 260 45 260Z"></path></g></g></svg>