<svg width="166" height="32" viewBox="0 0 166 32" fill="none" xmlns="http://www.w3.org/2000/svg">
<g clip-path="url(#clip0_568_11)">
<rect width="166" height="32" fill="white"/>
<path d="M50.4551 18.2363H45.8701V26H41.3877V4.4082H50.792C52.96 4.4082 54.6885 4.96484 55.9775 6.07812C57.2666 7.19141 57.9111 8.91504 57.9111 11.249C57.9111 13.7979 57.2666 15.5996 55.9775 16.6543C54.6885 17.709 52.8477 18.2363 50.4551 18.2363ZM52.5645 13.7393C53.1504 13.2217 53.4434 12.4014 53.4434 11.2783C53.4434 10.1553 53.1455 9.35449 52.5498 8.87598C51.9639 8.39746 51.1387 8.1582 50.0742 8.1582H45.8701V14.5156H50.0742C51.1387 14.5156 51.9688 14.2568 52.5645 13.7393ZM68.9854 13.8857C67.3057 13.8857 66.1777 14.4326 65.6016 15.5264C65.2793 16.1416 65.1182 17.0889 65.1182 18.3682V26H60.9141V10.0332H64.8984V12.8164C65.543 11.752 66.1045 11.0244 66.583 10.6338C67.3643 9.97949 68.3799 9.65234 69.6299 9.65234C69.708 9.65234 69.7715 9.65723 69.8203 9.66699C69.8789 9.66699 70.001 9.67187 70.1865 9.68164V13.959C69.9229 13.9297 69.6885 13.9102 69.4834 13.9004C69.2783 13.8906 69.1123 13.8857 68.9854 13.8857ZM85.9629 12.0547C87.3105 13.7441 87.9844 15.7412 87.9844 18.0459C87.9844 20.3896 87.3105 22.3965 85.9629 24.0664C84.6152 25.7266 82.5693 26.5566 79.8252 26.5566C77.0811 26.5566 75.0352 25.7266 73.6875 24.0664C72.3398 22.3965 71.666 20.3896 71.666 18.0459C71.666 15.7412 72.3398 13.7441 73.6875 12.0547C75.0352 10.3652 77.0811 9.52051 79.8252 9.52051C82.5693 9.52051 84.6152 10.3652 85.9629 12.0547ZM79.8105 13.0508C78.5898 13.0508 77.6475 13.4854 76.9834 14.3545C76.3291 15.2139 76.002 16.4443 76.002 18.0459C76.002 19.6475 76.3291 20.8828 76.9834 21.752C77.6475 22.6211 78.5898 23.0557 79.8105 23.0557C81.0312 23.0557 81.9688 22.6211 82.623 21.752C83.2773 20.8828 83.6045 19.6475 83.6045 18.0459C83.6045 16.4443 83.2773 15.2139 82.623 14.3545C81.9688 13.4854 81.0312 13.0508 79.8105 13.0508ZM105.519 4.4375V26H101.461V23.7881C100.865 24.7354 100.187 25.4238 99.4248 25.8535C98.6631 26.2832 97.7158 26.498 96.583 26.498C94.7178 26.498 93.1455 25.7461 91.8662 24.2422C90.5967 22.7285 89.9619 20.79 89.9619 18.4268C89.9619 15.7021 90.5869 13.5586 91.8369 11.9961C93.0967 10.4336 94.7764 9.65234 96.876 9.65234C97.8428 9.65234 98.7021 9.86719 99.4541 10.2969C100.206 10.7168 100.816 11.3027 101.285 12.0547V4.4375H105.519ZM94.2686 18.1191C94.2686 19.5938 94.5615 20.7705 95.1475 21.6494C95.7236 22.5381 96.6025 22.9824 97.7842 22.9824C98.9658 22.9824 99.8643 22.543 100.479 21.6641C101.095 20.7852 101.402 19.6475 101.402 18.251C101.402 16.2979 100.909 14.9014 99.9229 14.0615C99.3174 13.5537 98.6143 13.2998 97.8135 13.2998C96.5928 13.2998 95.6943 13.7637 95.1182 14.6914C94.5518 15.6094 94.2686 16.752 94.2686 18.1191ZM119.215 26.6006C116.129 26.6006 113.771 25.7607 112.14 24.0811C109.952 22.0205 108.858 19.0518 108.858 15.1748C108.858 11.2197 109.952 8.25098 112.14 6.26855C113.771 4.58887 116.129 3.74902 119.215 3.74902C122.301 3.74902 124.659 4.58887 126.29 6.26855C128.468 8.25098 129.557 11.2197 129.557 15.1748C129.557 19.0518 128.468 22.0205 126.29 24.0811C124.659 25.7607 122.301 26.6006 119.215 26.6006ZM123.478 20.7998C124.522 19.4814 125.045 17.6064 125.045 15.1748C125.045 12.7529 124.518 10.8828 123.463 9.56445C122.418 8.23633 121.002 7.57227 119.215 7.57227C117.428 7.57227 116.002 8.23145 114.938 9.5498C113.873 10.8682 113.341 12.7432 113.341 15.1748C113.341 17.6064 113.873 19.4814 114.938 20.7998C116.002 22.1182 117.428 22.7773 119.215 22.7773C121.002 22.7773 122.423 22.1182 123.478 20.7998ZM146.051 11.7471C147.34 13.124 147.984 15.1455 147.984 17.8115C147.984 20.624 147.35 22.7676 146.08 24.2422C144.82 25.7168 143.194 26.4541 141.202 26.4541C139.933 26.4541 138.878 26.1367 138.038 25.502C137.579 25.1504 137.13 24.6377 136.69 23.9639V32.2842H132.56V10.0332H136.559V12.3916C137.008 11.6982 137.486 11.1514 137.994 10.751C138.922 10.0381 140.025 9.68164 141.305 9.68164C143.17 9.68164 144.752 10.3701 146.051 11.7471ZM143.678 18.0166C143.678 16.7861 143.395 15.6973 142.828 14.75C142.271 13.8027 141.363 13.3291 140.104 13.3291C138.59 13.3291 137.55 14.0469 136.983 15.4824C136.69 16.2441 136.544 17.2109 136.544 18.3828C136.544 20.2383 137.037 21.542 138.023 22.2939C138.609 22.7334 139.303 22.9531 140.104 22.9531C141.266 22.9531 142.149 22.5039 142.755 21.6055C143.37 20.707 143.678 19.5107 143.678 18.0166ZM162.018 10.7656C163.268 11.5664 163.985 12.9434 164.171 14.8965H159.996C159.938 14.3594 159.786 13.9346 159.542 13.6221C159.083 13.0557 158.302 12.7725 157.198 12.7725C156.29 12.7725 155.641 12.9141 155.25 13.1973C154.869 13.4805 154.679 13.8125 154.679 14.1934C154.679 14.6719 154.884 15.0186 155.294 15.2334C155.704 15.458 157.154 15.8438 159.645 16.3906C161.305 16.7812 162.55 17.3721 163.38 18.1631C164.2 18.9639 164.61 19.9648 164.61 21.166C164.61 22.748 164.02 24.042 162.838 25.0479C161.666 26.0439 159.85 26.542 157.389 26.542C154.879 26.542 153.023 26.0146 151.822 24.96C150.631 23.8955 150.035 22.543 150.035 20.9023H154.269C154.356 21.6445 154.547 22.1719 154.84 22.4844C155.357 23.041 156.314 23.3193 157.711 23.3193C158.531 23.3193 159.181 23.1973 159.659 22.9531C160.147 22.709 160.392 22.3428 160.392 21.8545C160.392 21.3857 160.196 21.0293 159.806 20.7852C159.415 20.541 157.965 20.1211 155.455 19.5254C153.648 19.0762 152.374 18.5146 151.632 17.8408C150.89 17.1768 150.519 16.2197 150.519 14.9697C150.519 13.4951 151.095 12.2305 152.247 11.1758C153.409 10.1113 155.04 9.5791 157.14 9.5791C159.132 9.5791 160.758 9.97461 162.018 10.7656Z" fill="black"/>
<path fill-rule="evenodd" clip-rule="evenodd" d="M16 32C24.8366 32 32 24.8366 32 16C32 7.16344 24.8366 0 16 0C7.16344 0 0 7.16344 0 16C0 24.8366 7.16344 32 16 32ZM2.66671 19.8662L8.32357 25.523L13.9804 19.8662L8.32357 14.2093L2.66671 19.8662ZM15.8659 17.9806L10.209 12.3237L15.8659 6.66684L21.5227 12.3237L15.8659 17.9806ZM17.7513 19.8662L23.4082 25.523L29.0651 19.8662L23.4082 14.2093L17.7513 19.8662Z" fill="black"/>
</g>
<defs>
<clipPath id="clip0_568_11">
<rect width="166" height="32" fill="white"/>
</clipPath>
</defs>
</svg>
